# xmcd
#
# Track frame offsets: 
#        150
#        18280
#        35800
#
# Disc length: 944 seconds
#
# Revision: 5
# Processed by: cddbd v1.5.2PL0 Copyright (c) Steve Scherf et al.
# Submitted via: ExactAudioCopy v0.95b4
#
DISCID=1d03ae03
DTITLE=Juliet Roberts - Bad Girls [CD Single)
DYEAR=1994
DGENRE=Vocal
TTITLE0=Bad Girls (Radio Edit)
TTITLE1=I Like (Radio Edit)
TTITLE2=Bad Girls (Dan's Anthem)
EXTD=
EXTT0=
EXTT1=
EXTT2=
PLAYORDER=
